<svg xmlns="http://www.w3.org/2000/svg" viewBox="0 0 606.47 204.42"><defs><style>.cls-1{fill:#2aad7f;}.cls-2{fill:none;stroke:#228360;stroke-miterlimit:10;}.cls-3{fill:#f2ceae;}.cls-4{fill:#d8effc;}.cls-5{fill:#f2e1ad;}.cls-6{fill:#e78b86;}.cls-7{fill:#ecbe75;}.cls-8{fill:#6eaf97;}.cls-9{fill:#e8cfc8;}.cls-10{fill:#fff;}</style></defs><title>Asset 7</title><g id="Layer_2" data-name="Layer 2"><g id="Layer_1-2" data-name="Layer 1"><rect class="cls-1" width="401.54" height="204.42" rx="15"/><line class="cls-2" x1="321.62" y1="65.5" x2="104.36" y2="65.5"/><circle class="cls-3" cx="138.1" cy="65.53" r="3.9"/><circle class="cls-4" cx="223.38" cy="65.53" r="2.61"/><circle class="cls-5" cx="259.02" cy="65.53" r="3.9"/><circle class="cls-6" cx="240.56" cy="65.53" r="6.5"/><circle class="cls-7" cx="202.31" cy="65.53" r="10.39"/><circle class="cls-8" cx="281.39" cy="65.53" r="10.39"/><circle class="cls-9" cx="166.96" cy="65.53" r="16.89"/><path class="cls-10" d="M47.25,109q0-10.83,6.86-17.51a23.42,23.42,0,0,1,17-6.68q10.09,0,16.63,6.63T94.33,109c0,1.73,0,2.92-.1,3.57H56.33a14.16,14.16,0,0,0,5,9.23,15.28,15.28,0,0,0,10.1,3.45,16.53,16.53,0,0,0,7.85-1.9,13.12,13.12,0,0,0,5.52-5.29L89,119.73l3.61,1.38a20.55,20.55,0,0,1-8.71,9.17,25.8,25.8,0,0,1-12.75,3.21,23.16,23.16,0,0,1-17-6.79Q47.26,119.92,47.25,109Zm9.08-3.51H85.26a14.41,14.41,0,0,0-4.66-9.15A14,14,0,0,0,71.11,93a15.09,15.09,0,0,0-9.91,3.34A13.91,13.91,0,0,0,56.33,105.53Z"/><path class="cls-10" d="M105.89,132.51V85.87H115v7a13,13,0,0,1,6.14-5.95,19,19,0,0,1,8.44-2.05q8.67,0,13.31,5.41t4.64,15.27v27h-9.07V106.12q0-5.87-2.73-9.13a9.34,9.34,0,0,0-7.56-3.26,15.41,15.41,0,0,0-4.86.75,13.2,13.2,0,0,0-4.17,2.32,10.54,10.54,0,0,0-3,4.27,16.21,16.21,0,0,0-1.12,6.27v25.17Z"/><path class="cls-10" d="M162,132.51V85.87h9.08v46.64Z"/><path class="cls-10" d="M183.17,109.34a25.24,25.24,0,0,1,3.26-12.88,22.52,22.52,0,0,1,8.63-8.64,23.9,23.9,0,0,1,11.79-3,21.71,21.71,0,0,1,9.6,2.19,15.29,15.29,0,0,1,6.77,6.1V85.87h9.07v39.57q0,30.33-25.59,30.34a23.69,23.69,0,0,1-21.06-12.66c.45-.19,1.77-.87,3.93-2l3.65-1.94A14.4,14.4,0,0,0,199,145a15.6,15.6,0,0,0,7.74,2.11q16.62,0,16.62-21.08a5.13,5.13,0,0,0,0-.56,5.13,5.13,0,0,1-.05-.56,14.07,14.07,0,0,1-6.65,6.29,21.64,21.64,0,0,1-9.72,2.3,24.29,24.29,0,0,1-11.79-2.91,22,22,0,0,1-8.63-8.49A24.74,24.74,0,0,1,183.17,109.34Zm9.27-.1q0,7,4.34,11.17a15,15,0,0,0,10.85,4.2,15.75,15.75,0,0,0,5.62-1,16.43,16.43,0,0,0,5-2.92,13.89,13.89,0,0,0,3.57-4.88,15.84,15.84,0,0,0,1.34-6.54q0-7.21-4.47-11.37a15.6,15.6,0,0,0-11-4.14,14.69,14.69,0,0,0-10.8,4.39A15,15,0,0,0,192.44,109.24Z"/><path class="cls-10" d="M247.32,132.51V85.87h9.07v7A12.31,12.31,0,0,1,262,87.31,18.78,18.78,0,0,1,269.27,85a21.84,21.84,0,0,1,5.12.29q8.83,1.32,12.2,9.13,5-9.61,16.15-9.61,8.73,0,13.37,5.41t4.63,15.27v27h-9.07V106.12c0-3.87-1-6.91-2.86-9.1a9.86,9.86,0,0,0-7.88-3.29,11.22,11.22,0,0,0-9,3.78,14.31,14.31,0,0,0-3.37,9.83v25.17h-9.07V106q0-5.72-2.73-9a9.08,9.08,0,0,0-7.37-3.29,13.29,13.29,0,0,0-9.2,3.39q-3.78,3.39-3.78,10.22v25.17Z"/><path class="cls-10" d="M332.2,109.14a25,25,0,0,1,3.27-12.83,22.3,22.3,0,0,1,8.62-8.54,24.25,24.25,0,0,1,11.8-2.92,22.89,22.89,0,0,1,9.65,2.07,14.35,14.35,0,0,1,6.72,5.93v-7h9.07v46.64h-9.07v-7.17a15,15,0,0,1-6.77,6,22.1,22.1,0,0,1-9.6,2.15,23.05,23.05,0,0,1-16.77-6.79Q332.21,119.92,332.2,109.14Zm9.27-.1a15.14,15.14,0,0,0,4.4,11.18,14.72,14.72,0,0,0,10.8,4.39,15.49,15.49,0,0,0,11-4.2c3-2.8,4.5-6.58,4.5-11.37a14.88,14.88,0,0,0-2.35-8.36A14.47,14.47,0,0,0,364,95.41a16.51,16.51,0,0,0-7.35-1.68A14.91,14.91,0,0,0,345.85,98,14.72,14.72,0,0,0,341.47,109Z"/><path class="cls-1" d="M419.87,109.14a25.28,25.28,0,0,1,3.22-12.83,22.08,22.08,0,0,1,8.5-8.54,23.81,23.81,0,0,1,11.72-2.92,23,23,0,0,1,9.82,2.07,14.65,14.65,0,0,1,6.7,5.93V60.45h9.07v72.06h-9.07v-7.17a15,15,0,0,1-6.8,6,22.22,22.22,0,0,1-9.62,2.15,23.79,23.79,0,0,1-11.72-3,22.17,22.17,0,0,1-8.58-8.58A25.25,25.25,0,0,1,419.87,109.14Zm9.27-.1a15.22,15.22,0,0,0,4.35,11.18,14.56,14.56,0,0,0,10.75,4.39,15.52,15.52,0,0,0,11-4.22q4.52-4.23,4.52-11.35a14.88,14.88,0,0,0-2.35-8.36,14.47,14.47,0,0,0-5.79-5.27,16.54,16.54,0,0,0-7.35-1.68A14.65,14.65,0,0,0,429.14,109Z"/><path class="cls-1" d="M536.47,93.53V85.87h8.44V68.26H554V85.87h9.9v7.66H554v39h-9.07v-39Z"/><path class="cls-1" d="M570.76,118.51h8.39a7.83,7.83,0,0,0,1.24,3.09,7.27,7.27,0,0,0,2.56,2.34,12,12,0,0,0,7.35,1.64,8.56,8.56,0,0,0,5.1-1.92,5.51,5.51,0,0,0,2-4.25,4.73,4.73,0,0,0-1.67-3.88,10.46,10.46,0,0,0-4.58-2.09l-6.39-1.52q-6.68-1.8-9.87-5.39t-2.6-9.78a11.59,11.59,0,0,1,5.24-8.49,18.38,18.38,0,0,1,11-3.41,21,21,0,0,1,5.65.73A16,16,0,0,1,599,87.85,11.76,11.76,0,0,1,602.68,92a15.23,15.23,0,0,1,1.7,6H596a5.3,5.3,0,0,0-2.38-3.9,8.54,8.54,0,0,0-4.86-1.37,8.65,8.65,0,0,0-4.55,1.19A5,5,0,0,0,581.73,97a5.66,5.66,0,0,0,.09,3.76q1,2.33,5.39,3.61l6.87,1.68q12.12,3,12.39,13.59a11.76,11.76,0,0,1-5.32,10,21.7,21.7,0,0,1-12.95,3.8A20.34,20.34,0,0,1,580,131.8a15.92,15.92,0,0,1-6.49-5.19A14,14,0,0,1,570.76,118.51Z"/><circle class="cls-7" cx="505.44" cy="109.17" r="24.44"/><path class="cls-10" d="M401.45,121h-.05a6.37,6.37,0,0,0-4.54,1.83,6,6,0,0,0-1.9,4.51,5.68,5.68,0,0,0,1.9,4.41,6.57,6.57,0,0,0,4.59,1.74h.09V121Z"/><path class="cls-1" d="M406.13,122.83a6.59,6.59,0,0,0-4.59-1.83v12.48h0a6.75,6.75,0,0,0,4.59-1.73,5.66,5.66,0,0,0,1.92-4.41A5.94,5.94,0,0,0,406.13,122.83Z"/></g></g></svg>