<svg id="Layer_1" data-name="Layer 1" xmlns="http://www.w3.org/2000/svg" viewBox="0 0 393.65 441.89">
    <defs>
        <style>
        .cls-1 {
            fill: #d50000;
        }

        .cls-2 {
            fill: #ff1744;
            stroke: #fff;
            stroke-miterlimit: 10;
            stroke-width: 4px;
            animation: spin 4s linear infinite;
            transform-origin: 50% 45%;
        }

        .cls-3 {
            fill: #ff5252;
        }

        .cls-4 {
            fill: #ff8a80;
        }

        @keyframes spin {
            100% {
                transform: rotate(360deg);
            }
        }
        </style>
    </defs>
    <title>Artboard 1</title>
    <path class="cls-1" d="M345.67,412.33c-29.92-6.95-45.89,5.07-51.2,29.56L181.6,246.4l51.21-29.56Z" />
    <path class="cls-1" d="M48,412.33c29-7.53,45.78,2.64,51.2,29.56L212.05,246.4l-51.2-29.56Z" />
    <path class="cls-2" d="M222.23,13.68h0A33.47,33.47,0,0,0,260,23h0A33.46,33.46,0,0,1,305,46.6h0A33.46,33.46,0,0,0,334.1,72.39h0A33.46,33.46,0,0,1,363,114.2h0a33.46,33.46,0,0,0,13.8,36.37h0A33.47,33.47,0,0,1,382.87,201h0a33.47,33.47,0,0,0-4.69,38.61h0a33.46,33.46,0,0,1-18,47.5h0a33.47,33.47,0,0,0-22.1,32h0a33.46,33.46,0,0,1-38,33.68h0A33.47,33.47,0,0,0,265.6,370.9h0a33.47,33.47,0,0,1-49.33,12.16h0a33.45,33.45,0,0,0-38.89,0h0a33.47,33.47,0,0,1-49.33-12.16h0a33.47,33.47,0,0,0-34.44-18.08h0a33.46,33.46,0,0,1-38-33.68h0a33.47,33.47,0,0,0-22.1-32h0a33.46,33.46,0,0,1-18-47.5h0A33.47,33.47,0,0,0,10.78,201h0a33.47,33.47,0,0,1,6.12-50.44h0A33.46,33.46,0,0,0,30.7,114.2h0A33.46,33.46,0,0,1,59.55,72.39h0A33.46,33.46,0,0,0,88.67,46.6h0a33.46,33.46,0,0,1,45-23.61h0a33.47,33.47,0,0,0,37.77-9.31h0A33.47,33.47,0,0,1,222.23,13.68Z" />
    <path class="cls-3" d="M239.84,193c15.9-8.57,25.61-21.89,28.67-40.28a53.83,53.83,0,0,1-18.19,3.51L246,159.16a53.55,53.55,0,0,0,18.48-1.36c-5.19,17.91-16.38,30-33.18,36.66Z" />
    <path class="cls-3" d="M153.81,193c-15.9-8.57-25.61-21.89-28.67-40.28a53.83,53.83,0,0,0,18.19,3.51l4.31,2.93a53.55,53.55,0,0,1-18.48-1.36c5.19,17.91,16.38,30,33.18,36.66Z" />
    <path class="cls-3" d="M199.81,223.72h-7.76a303.31,303.31,0,0,1,0,49.89h7.76A303.31,303.31,0,0,1,199.81,223.72Z" />
    <path class="cls-4" d="M140,125.15c0,132,112.37,134.94,112.37,0" />
    <ellipse class="cls-3" cx="196.14" cy="125.15" rx="56.18" ry="12.33" />
    <path class="cls-3" d="M221.26,278.48H171a6.23,6.23,0,0,0,0-5.9,140.25,140.25,0,0,1,50.25,0A7,7,0,0,0,221.26,278.48Z" />
</svg>