<?xml version="1.0" encoding="utf-8"?>
<!-- Generator: Adobe Illustrator 23.0.1, SVG Export Plug-In . SVG Version: 6.00 Build 0)  -->
<svg version="1.1" id="Layer_1" xmlns="http://www.w3.org/2000/svg" xmlns:xlink="http://www.w3.org/1999/xlink" x="0px" y="0px" viewBox="0 0 672.3 815.3" style="enable-background:new 0 0 672.3 815.3;" xml:space="preserve">
    <style type="text/css">
    .st0 {
        fill: #595050;
    }

    .st1 {
        fill: #808080;
        stroke: #FFFFFF;
        stroke-width: 4;
        stroke-miterlimit: 10;
        animation: spin 5s linear infinite;
        transform-origin: 50% 50%;
    }

    .st2 {
        fill: #595850;
    }

    .st3 {
        fill: #B2A1A1;
    }

    @keyframes spin {
        100% {
            transform: rotate(360deg);
        }
    }
    </style>
    <g>
        <g>
            <path class="st0" d="M485,604c-29.9-6.9-45.9,5.1-51.2,29.6L320.9,438.1l51.2-29.6L485,604z" />
            <path class="st0" d="M187.3,604c29-7.5,45.8,2.6,51.2,29.6l112.9-195.5l-51.2-29.6L187.3,604z" />
        </g>
        <path class="st1" d="M361.5,225.7L361.5,225.7c9.3,10.9,24.5,14.6,37.8,9.3l0,0c19.1-7.6,40.4,3.6,45,23.6l0,0
		c3.2,13.9,14.9,24.3,29.1,25.8l0,0c20.4,2.1,34.1,22,28.9,41.8l0,0c-3.6,13.8,1.9,28.4,13.8,36.4l0,0c17.1,11.4,20,35.3,6.1,50.4
		l0,0c-9.7,10.5-11.5,26.1-4.7,38.6l0,0c9.8,18,1.3,40.5-18,47.5l0,0c-13.4,4.9-22.3,17.7-22.1,32l0,0c0.3,20.5-17.7,36.5-38,33.7
		l0,0c-14.2-2-28,5.3-34.4,18.1l0,0c-9.2,18.3-32.6,24.1-49.3,12.2l0,0c-11.6-8.3-27.3-8.3-38.9,0l0,0
		c-16.7,11.9-40.1,6.2-49.3-12.2l0,0c-6.4-12.8-20.3-20-34.4-18.1l0,0c-20.3,2.8-38.4-13.2-38-33.7l0,0c0.2-14.3-8.6-27.2-22.1-32
		l0,0c-19.3-7-27.8-29.5-18-47.5l0,0c6.8-12.6,5-28.1-4.7-38.6l0,0c-13.8-15.1-10.9-39.1,6.1-50.4l0,0c11.9-7.9,17.4-22.5,13.8-36.4
		l0,0c-5.2-19.8,8.5-39.7,28.9-41.8l0,0c14.2-1.5,25.9-11.9,29.1-25.8l0,0c4.6-20,25.9-31.2,45-23.6l0,0c13.3,5.3,28.5,1.5,37.8-9.3
		l0,0C324.1,210.1,348.2,210.1,361.5,225.7z" />
        <g>
            <path class="st2" d="M379.2,405c15.9-8.6,25.6-21.9,28.7-40.3c-6.5,2.3-12.6,3.6-18.2,3.5l-4.3,2.9c5.5,0.7,11.8,0.2,18.5-1.4
			c-5.2,17.9-16.4,30-33.2,36.7L379.2,405z" />
            <path class="st2" d="M293.1,405c-15.9-8.6-25.6-21.9-28.7-40.3c6.5,2.3,12.6,3.6,18.2,3.5l4.3,2.9c-5.5,0.7-11.8,0.2-18.5-1.4
			c5.2,17.9,16.4,30,33.2,36.7L293.1,405z" />
            <path class="st2" d="M339.1,435.7h-3.7l0,0H335l0,0h-3.7c1.4,16.6,1.4,33.3,0,49.9h7.8C337.8,469,337.8,452.3,339.1,435.7z" />
            <path class="st3" d="M279.3,337.1c0,132,112.4,134.9,112.4,0" />
            <ellipse class="st2" cx="335.5" cy="337.1" rx="56.2" ry="12.3" />
            <path class="st2" d="M360.6,490.5h-50.3c1-2,1-4,0-5.9c16.9-3,33.7-3,50.3,0C359.8,486.5,359.7,488.4,360.6,490.5z" />
        </g>
    </g>
</svg>