<svg xmlns="http://www.w3.org/2000/svg" viewBox="0 0 85.01 85.01">
    <defs>
        <style>
        .cls-1 {
            fill: none;
            stroke: #2FA0D4;
            stroke-miterlimit: 10;
            stroke-width: 2px;
        }
        </style>
    </defs>
    <g>
        <path class="cls-1" d="M50.52,6.66h0a8.51,8.51,0,0,0,11.67,4.83h0A8.5,8.5,0,0,1,73.52,22.82h0a8.51,8.51,0,0,0,4.84,11.67h0a8.51,8.51,0,0,1,0,16h0a8.52,8.52,0,0,0-4.84,11.67h0A8.5,8.5,0,0,1,62.19,73.52h0a8.52,8.52,0,0,0-11.67,4.84h0a8.51,8.51,0,0,1-16,0h0a8.51,8.51,0,0,0-11.67-4.84h0A8.5,8.5,0,0,1,11.49,62.19h0A8.51,8.51,0,0,0,6.66,50.52h0a8.5,8.5,0,0,1,0-16h0a8.51,8.51,0,0,0,4.83-11.67h0A8.5,8.5,0,0,1,22.82,11.49h0A8.51,8.51,0,0,0,34.49,6.66h0A8.5,8.5,0,0,1,50.52,6.66Z" />
        <circle class="cls-1" cx="42.51" cy="42.51" r="18.91" />
    </g>
</svg>