<svg xmlns="http://www.w3.org/2000/svg" viewBox="0 0 43.74 72.88">
    <defs>
        <style>
        .cls-1 {
            fill: none;
            stroke: #2FA0D4;
            stroke-miterlimit: 10;
            stroke-width: 2px;
        }
        </style>
    </defs>
    <g>
        <path class="cls-1" d="M1.41,15.43a18.28,18.28,0,0,1,6.4-9.88,22.45,22.45,0,0,1,11.88-4.4Q29,.22,35.43,4.92t7.18,13.55a19.54,19.54,0,0,1-2.49,12.41,19,19,0,0,1-9,7.72q-4.44,1.76-4.41,5.17a6.4,6.4,0,0,1-1.79,4.7,7.25,7.25,0,0,1-4.75,2.28,6.63,6.63,0,0,1-5.06-1.41c-1.39-1.13-2.21-3-2.48-5.68a16.75,16.75,0,0,1,1.59-8.85q2-4.38,7.48-7.13L24.86,26q4.18-2.41,3.81-6.2a5.41,5.41,0,0,0-2.4-3.89A7.3,7.3,0,0,0,21,14.59q-5.17.51-6.29,5.45c-.32,1.57-1.53,2.83-3.65,3.77a7.93,7.93,0,0,1-5.68.47,6.18,6.18,0,0,1-2.2-1.44,7.94,7.94,0,0,1-1.53-2.21A7.39,7.39,0,0,1,1,18,6.22,6.22,0,0,1,1.41,15.43Zm28.8,47.18a7.91,7.91,0,0,1-1.94,6.23,8.64,8.64,0,0,1-5.88,3,8.49,8.49,0,0,1-6.31-1.78A8,8,0,0,1,13,64.32a7.77,7.77,0,0,1,1.9-6.16,8.56,8.56,0,0,1,5.83-2.95A8.71,8.71,0,0,1,27.09,57,7.8,7.8,0,0,1,30.21,62.61Z" />
    </g>
</svg>