<?xml version="1.0" encoding="utf-8"?>
<!-- Generator: Adobe Illustrator 23.0.1, SVG Export Plug-In . SVG Version: 6.00 Build 0)  -->
<svg version="1.1" id="Layer_1" xmlns="http://www.w3.org/2000/svg" xmlns:xlink="http://www.w3.org/1999/xlink" x="0px" y="0px" viewBox="0 0 672.3 815.3" style="enable-background:new 0 0 672.3 815.3;" xml:space="preserve">
    <style type="text/css">
    .st0 {
        fill: #D50000;
    }

    .st1 {
        fill: #FF1744;
        stroke: #FFFFFF;
        stroke-width: 4;
        stroke-miterlimit: 10;
        animation: spin 5s linear infinite;
        transform-origin: 50% 50%;
    }

    .st2 {
        fill: #FF5252;
    }

    .st3 {
        fill: #FF8A80;
    }

    .st4 {
        fill: #FF6E40;
        animation: appear .5s infinite;
    }

    .st5 {
        fill: #FF7B3A;
        animation: appear .5s infinite;
        animation-delay: .1s;
    }

    .st6 {
        fill: #FF8834;
        animation: appear .5s infinite;
        animation-delay: .2s;
    }

    .st7 {
        fill: #FF962F;
        animation: appear .5s infinite;
        animation-delay: .3s;
    }

    .st8 {
        fill: #FFA329;
        animation: appear .5s infinite;
        animation-delay: .4s;
    }

    .st9 {
        fill: #FFB023;
        animation: appear .5s infinite;
        animation-delay: .5s;
    }

    .st10 {
        fill: #FFBD1D;
        animation: appear .5s infinite;
        animation-delay: .6s;
    }

    .st11 {
        fill: #FFCA17;
        animation: appear .5s infinite;
        animation-delay: .7s;
    }

    .st12 {
        fill: #FFD711;
        animation: appear .5s infinite;
        animation-delay: .8s;
    }

    .st13 {
        fill: #FFE50C;
        animation: appear .5s infinite;
        animation-delay: .9s;
    }

    .st14 {
        fill: #FFF206;
        animation: appear .5s infinite;
        animation-delay: 1s;
    }

    .st15 {
        fill: #FFFF00;
        animation: appear .5s infinite;
        animation-delay: 1.1s;
    }

    .st4,
    .st5,
    .st6,
    .st7,
    .st8,
    .st9,
    .st10,
    .st11,
    .st12,
    .st13,
    .st14,
    .st15 {
        opacity: 0;
        transition-duration: .2s;
    }

    @keyframes spin {
        100% {
            transform: rotate(360deg);
        }
    }

    @keyframes appear {
        0% {
            opacity: 0;
        }

        100% {
            opacity: 1;
        }
    }
    </style>
    <g>
        <g>
            <path class="st0" d="M485,604c-29.9-6.9-45.9,5.1-51.2,29.6L320.9,438.1l51.2-29.6L485,604z" />
            <path class="st0" d="M187.3,604c29-7.5,45.8,2.6,51.2,29.6l112.9-195.5l-51.2-29.6L187.3,604z" />
        </g>
        <path class="st1" d="M361.5,225.7L361.5,225.7c9.3,10.9,24.5,14.6,37.8,9.3l0,0c19.1-7.6,40.4,3.6,45,23.6l0,0
        c3.2,13.9,14.9,24.3,29.1,25.8h0c20.4,2.1,34.1,22,28.9,41.8v0c-3.6,13.8,1.9,28.4,13.8,36.4l0,0c17.1,11.4,20,35.3,6.1,50.4v0
        c-9.7,10.5-11.5,26.1-4.7,38.6v0c9.8,18,1.3,40.5-18,47.5l0,0c-13.4,4.9-22.3,17.7-22.1,32v0c0.3,20.5-17.7,36.5-38,33.7h0
        c-14.2-2-28,5.3-34.4,18.1v0c-9.2,18.3-32.6,24.1-49.3,12.2l0,0c-11.6-8.3-27.3-8.3-38.9,0l0,0c-16.7,11.9-40.1,6.2-49.3-12.2l0,0
        c-6.4-12.8-20.3-20-34.4-18.1h0c-20.3,2.8-38.4-13.2-38-33.7v0c0.2-14.3-8.6-27.2-22.1-32l0,0c-19.3-7-27.8-29.5-18-47.5l0,0
        c6.8-12.6,5-28.1-4.7-38.6l0,0c-13.8-15.1-10.9-39.1,6.1-50.4l0,0c11.9-7.9,17.4-22.5,13.8-36.4l0,0c-5.2-19.8,8.5-39.7,28.9-41.8
        h0c14.2-1.5,25.9-11.9,29.1-25.8l0,0c4.6-20,25.9-31.2,45-23.6l0,0c13.3,5.3,28.5,1.5,37.8-9.3l0,0
        C324.1,210.1,348.2,210.1,361.5,225.7z" />
        <g>
            <path class="st2" d="M379.2,405c15.9-8.6,25.6-21.9,28.7-40.3c-6.5,2.3-12.6,3.6-18.2,3.5l-4.3,2.9c5.5,0.7,11.8,0.2,18.5-1.4
            c-5.2,17.9-16.4,30-33.2,36.7L379.2,405z" />
            <path class="st2" d="M293.1,405c-15.9-8.6-25.6-21.9-28.7-40.3c6.5,2.3,12.6,3.6,18.2,3.5l4.3,2.9c-5.5,0.7-11.8,0.2-18.5-1.4
            c5.2,17.9,16.4,30,33.2,36.7L293.1,405z" />
            <path class="st2" d="M339.1,435.7l-3.7,0l0,0H335l0,0l-3.7,0c1.4,16.6,1.4,33.3,0,49.9h7.8C337.8,469,337.8,452.3,339.1,435.7z" />
            <path class="st3" d="M279.3,337.1c0,132,112.4,134.9,112.4,0" />
            <ellipse class="st2" cx="335.5" cy="337.1" rx="56.2" ry="12.3" />
            <path class="st2" d="M360.6,490.5h-50.3c1-2,1-4,0-5.9c16.9-3,33.7-3,50.3,0C359.8,486.5,359.7,488.4,360.6,490.5z" />
        </g>
    </g>
    <g>
        <circle class="st4" cx="238.8" cy="691.6" r="1.9" />
        <path class="st5" d="M228.6,687.3c0.7-0.5,1.7-0.4,2.1,0.3c0.3,0.1,0.8,1.6,1,1.7c0.1,0.3,0.5,0.4,0.7,0.7c0.1,0.2,1.6,1,1.7,1.2
        c0.6,0.4,0.7,1.4,0.2,1.9c0,0.2-1.3,1.1-1.4,1.3c-0.2,0.2-0.4,0.5-0.5,0.8c-0.1,0.2-0.3,1.7-0.5,1.9c-0.2,0.7-1.1,1.1-1.7,0.8
        c-0.3,0.1-1.6-0.9-1.9-0.9c-0.3-0.2-0.6-0.3-1-0.2c-0.2-0.1-1.8,0.1-2-0.1c-0.8-0.1-1.4-0.9-1.2-1.7c0-0.2,0.5-1.6,0.5-1.8
        c0-0.3,0.1-0.6,0-0.9c0-0.2-0.7-1.5-0.7-1.6c-0.3-0.6,0.2-1.4,0.9-1.5c0.1-0.1,1.6-0.1,1.7-0.2c0.3,0,0.5-0.2,0.8-0.4
        C227.3,688.5,228.4,687.3,228.6,687.3z" />
        <path class="st6" d="M219.8,682.8c1.1-0.8,2.8-0.2,3.1,1c0.2,0.1,0.6,3.1,0.8,3.2c0.1,0.5,0.4,1,0.9,1.4c0.1,0.2,2.7,1.9,2.7,2.1
        c1,0.8,0.9,2.5-0.2,3.1c0,0.2-2.8,1.4-2.9,1.5c-0.5,0.2-0.8,0.7-1,1.2c-0.1,0.1-0.9,3-1,3.1c-0.4,1.2-2.1,1.6-3,0.8
        c-0.2,0-2.3-2.2-2.5-2.3c-0.4-0.4-0.9-0.6-1.5-0.6c-0.2-0.1-3.2,0-3.3-0.2c-1.3-0.1-2.2-1.6-1.6-2.9c0-0.1,1.5-2.7,1.5-2.8
        c0.3-0.5,0.3-1,0.1-1.5c0-0.1-1-2.9-1-3c-0.4-1.2,0.7-2.4,1.9-2.3c0.1-0.1,3,0.5,3.1,0.5c0.5,0.1,1-0.1,1.4-0.4
        C217.3,684.7,219.6,682.8,219.8,682.8z" />
        <path class="st7" d="M211.8,676.8c1.7-1,3.8,0.2,3.9,2.1c0.2,0.1,0.1,4.5,0.2,4.7c0,0.8,0.4,1.5,0.9,2c0.1,0.2,3.5,3,3.5,3.3
        c1.4,1.3,0.9,3.6-0.9,4.2c-0.1,0.1-4.3,1.3-4.4,1.5c-0.7,0.2-1.3,0.8-1.6,1.5c-0.1,0.1-1.7,4.2-1.9,4.3c-0.8,1.7-3.1,2-4.3,0.5
        c-0.2,0-2.7-3.7-2.9-3.8c-0.5-0.6-1.2-1-1.9-1.1c-0.2-0.1-4.6-0.5-4.7-0.6c-1.8-0.3-2.8-2.5-1.7-4.1c0-0.1,2.8-3.5,2.8-3.7
        c0.5-0.6,0.6-1.4,0.5-2.1c0-0.1-1.1-4.3-1-4.4c-0.4-1.8,1.4-3.4,3.1-2.8c0.1-0.1,4.2,1.5,4.3,1.4c0.7,0.2,1.4,0,2.1-0.3
        C207.9,679.2,211.6,676.8,211.8,676.8z" />
        <path class="st8" d="M204.4,669.7c2.3-1,4.8,0.8,4.6,3.2c0.1,0.1-0.8,5.9-0.7,6c-0.1,1,0.2,2,0.9,2.7c0.1,0.2,4.1,4.4,4.1,4.6
        c1.6,1.8,0.6,4.7-1.7,5.2c-0.1,0.1-5.8,1-5.9,1.1c-1,0.2-1.8,0.8-2.3,1.6c-0.1,0.1-2.8,5.2-3,5.3c-1.2,2.1-4.3,2.1-5.5,0
        c-0.2,0-2.8-5.2-3-5.3c-0.5-0.9-1.3-1.5-2.3-1.7c-0.1-0.1-5.9-1.2-5.9-1.3c-2.4-0.5-3.3-3.6-1.6-5.4c0-0.1,4.2-4.2,4.2-4.3
        c0.7-0.7,1-1.7,0.9-2.6c0.1-0.1-0.8-5.8-0.7-5.9c-0.3-2.4,2.2-4.2,4.4-3.1c0.1-0.1,5.2,2.6,5.3,2.6c0.9,0.4,1.8,0.3,2.7,0
        C199.1,672.3,204.3,669.7,204.4,669.7z" />
        <path class="st9" d="M197.8,662.6c2.9-1,5.8,1.6,5.1,4.5c0.1,0.1-1.8,7.1-1.7,7.2c-0.3,1.2,0,2.4,0.7,3.4c0,0.2,4.6,5.8,4.5,6
        c1.8,2.4,0.2,5.9-2.8,6.1c-0.1,0.1-7.3,0.4-7.4,0.5c-1.2,0.1-2.3,0.7-3,1.7c-0.1,0.1-4.1,6.1-4.2,6.1c-1.7,2.5-5.5,2-6.6-0.7
        c-0.2,0-2.7-6.8-2.8-6.9c-0.4-1.1-1.4-2-2.6-2.3c-0.1-0.1-7.1-2.1-7.1-2.2c-2.8-0.9-3.6-4.7-1.3-6.6c0-0.1,5.7-4.6,5.7-4.6
        c0.9-0.7,1.5-1.9,1.4-3.1c0.1-0.1-0.3-7.3-0.2-7.3c-0.1-3,3.2-4.8,5.7-3.2c0.1,0,6.1,4,6.2,3.9c1,0.6,2.2,0.6,3.4,0.4
        C191,665.1,197.7,662.6,197.8,662.6z" />
        <path class="st10" d="M192.3,655.1c3.5-0.9,6.6,2.5,5.4,5.8c0.1,0.1-3,8.2-3,8.3c-0.5,1.3-0.3,2.8,0.4,4.1c0,0.1,4.7,7.4,4.7,7.5
        c1.9,3-0.4,6.9-3.9,6.8c-0.1,0.1-8.7-0.4-8.8-0.4c-1.4-0.1-2.8,0.5-3.7,1.6c-0.1,0-5.5,6.8-5.6,6.8c-2.3,2.7-6.7,1.8-7.7-1.6
        c-0.1,0-2.3-8.4-2.4-8.5c-0.4-1.4-1.4-2.5-2.7-3c-0.1-0.1-8.1-3.2-8.2-3.4c-3.3-1.4-3.7-5.9-0.7-7.9c0-0.1,7.3-4.7,7.4-4.8
        c1.2-0.8,1.9-2.1,2-3.5c0.1-0.1,0.5-8.7,0.5-8.7c0.2-3.5,4.4-5.3,7.1-3.1c0.1,0,6.7,5.5,6.8,5.5c1.1,0.9,2.5,1,3.9,0.8
        C183.9,657.4,192.2,655.1,192.3,655.1z" />
        <path class="st11" d="M188.1,647.5c4.1-0.6,7.2,3.6,5.4,7.3c0.1,0.1-4.5,9-4.5,9.1c-0.7,1.5-0.7,3.2,0,4.7c0,0.1,4.6,9.1,4.6,9.2
        c1.8,3.7-1.3,7.9-5.3,7.3c-0.1,0.1-10-1.6-10-1.6c-1.6-0.3-3.3,0.3-4.4,1.4c-0.1,0-7.1,7.2-7.2,7.2c-2.9,2.9-7.9,1.3-8.6-2.8
        c-0.1,0-1.6-10-1.7-10.1c-0.3-1.6-1.3-3-2.8-3.8c0-0.1-9-4.6-9-4.7c-3.6-1.9-3.6-7.2,0.1-9.1c0-0.1,9-4.5,9.1-4.6
        c1.5-0.7,2.5-2.1,2.7-3.7c0,0,1.5-10,1.6-10c0.6-4,5.6-5.7,8.5-2.8c0.1,0,7.1,7.1,7.2,7.1c1.2,1.2,2.8,1.4,4.4,1.4
        C178.1,649.2,188,647.5,188.1,647.5z" />
        <path class="st12" d="M183.8,640.3c4.7-0.2,7.7,5,5.2,8.9c0,0.1-6.3,9.6-6.3,9.7c-1,1.6-1.2,3.5-0.6,5.3c0,0.1,4.2,10.8,4.1,10.9
        c1.7,4.4-2.4,8.8-6.9,7.6c0,0-11.1-3.1-11.1-3.1c-1.8-0.5-3.7-0.1-5.2,1.1c-0.1,0-8.9,7.3-9,7.3c-3.6,2.9-9.1,0.5-9.3-4.2
        c-0.1,0-0.5-11.5-0.6-11.6c-0.1-1.9-1.1-3.6-2.6-4.6c0-0.1-9.7-6.3-9.7-6.4c-3.9-2.6-3.2-8.5,1.2-10.2c0,0,10.8-4,10.8-4
        c1.7-0.6,3.1-2.1,3.5-3.9c0,0,2.9-11.1,3-11.1c1.2-4.5,7.1-5.7,10-2.1c0,0,7.1,9,7.2,9c1.2,1.5,3,2,4.8,2.2
        C172.3,640.9,183.8,640.3,183.8,640.3z" />
        <path class="st13" d="M180.9,633.9c5.2,0.4,7.8,6.6,4.5,10.5c0,0-8.4,9.8-8.4,9.8c-1.4,1.6-1.9,3.7-1.4,5.8
        c0,0.1,3.2,12.5,3.1,12.6c1.3,5.1-3.8,9.5-8.6,7.4c0,0-11.9-5-11.9-5c-1.9-0.8-4.1-0.6-5.9,0.5c0,0-10.9,6.9-11,6.9
        c-4.4,2.8-10.2-0.7-9.7-5.9c0,0,1.1-12.9,1-12.9c0.2-2.1-0.7-4.1-2.3-5.5c0,0-9.9-8.3-9.9-8.3c-4-3.4-2.4-9.9,2.7-11.1
        c0,0,12.6-2.9,12.6-2.9c2-0.5,3.7-1.9,4.5-3.8c0,0,4.8-12,4.8-12c1.9-4.9,8.6-5.4,11.3-0.9c0,0,6.7,11,6.7,11c1.1,1.8,3,2.6,5,3.1
        C168,633.1,180.8,633.9,180.9,633.9z" />
        <path class="st14" d="M179.3,628c5.7,1.2,7.5,8.4,3.1,12.2c0,0-10.8,9.3-10.8,9.4c-1.7,1.5-2.6,3.8-2.4,6.1c0,0,1.5,14.2,1.5,14.3
        c0.6,5.8-5.7,9.7-10.6,6.7c0,0-12.2-7.4-12.2-7.4c-2-1.2-4.4-1.4-6.5-0.4c0,0-13.1,5.8-13.1,5.8c-5.3,2.4-11-2.4-9.7-8
        c0,0,3.3-13.9,3.3-14c0.5-2.2-0.1-4.6-1.6-6.3c0,0-9.6-10.7-9.6-10.7c-3.9-4.3-1.1-11.2,4.7-11.7c0,0,14.3-1.2,14.3-1.2
        c2.3-0.2,4.4-1.5,5.5-3.5c0,0,7.2-12.4,7.2-12.4c2.9-5,10.3-4.5,12.5,0.8c0,0,5.5,13.2,5.5,13.2c0.9,2.1,2.9,3.3,5,4.2
        C165.3,625.1,179.2,628,179.3,628z" />
        <path class="st15" d="M110.5,605.5l15.6,1.5c2.5,0.2,5-0.8,6.6-2.7l10.1-12c4.1-4.9,12-2.9,13.4,3.3l3.4,15.3
        c0.5,2.5,2.3,4.5,4.6,5.5l14.6,5.9c5.9,2.4,6.5,10.5,1,13.7l-13.5,8c-2.2,1.3-3.6,3.6-3.8,6.1l-1.1,15.7c-0.4,6.4-8,9.4-12.7,5.2
        l-11.8-10.4c-1.9-1.7-4.5-2.3-6.9-1.7l-15.2,3.8c-6.2,1.5-11.4-4.7-8.9-10.5l6.3-14.4c1-2.3,0.8-5-0.5-7.1l-8.3-13.3
        C99.9,611.8,104.1,604.9,110.5,605.5z" />
    </g>
    <g>
        <ellipse transform="matrix(0.1506 -0.9886 0.9886 0.1506 -273.2767 1000.6349)" class="st4" cx="445.7" cy="659.3" rx="1.5" ry="1.4" />
        <path class="st5" d="M448.5,660.2c-0.1,0.2,0.8,1,0.8,1.2c0.2,0.2,0.2,0.4,0.3,0.7c0,0.2,0.1,1.4,0.3,1.5c0.1,0.6,0.8,0.9,1.4,0.7
        c0.1,0,1.1-0.6,1.2-0.6c0.2-0.1,0.4-0.1,0.7-0.1c0.1,0,1.3,0.3,1.4,0.2c0.5,0.1,1-0.4,1-0.8c0.1-0.1-0.2-1.1-0.1-1.2
        c0-0.2,0-0.4,0.2-0.6c0.1-0.1,0.8-1,0.8-1.2c0.3-0.6,0.1-1.2-0.4-1.4c0-0.2-1.2-0.4-1.3-0.5c-0.2-0.1-0.4-0.2-0.6-0.4
        c-0.1-0.1-0.9-1-1.1-1.1c-0.4-0.4-1.1-0.3-1.4,0.1c-0.1,0-0.6,1-0.7,1.1c-0.1,0.2-0.3,0.3-0.5,0.4c-0.1,0.1-1.3,0.5-1.4,0.6
        C448.3,659.2,448.2,659.8,448.5,660.2z" />
        <path class="st6" d="M453.5,661.1c0,0.2,2,1.1,2,1.3c0.3,0.2,0.5,0.6,0.7,0.9c0.1,0.2,0.5,2.3,0.6,2.4c0.3,0.9,1.5,1.3,2.3,0.7
        c0.1,0,1.7-1.5,1.8-1.5c0.3-0.3,0.7-0.3,1.1-0.4c0.1,0,2.3,0.1,2.4,0.1c1,0,1.7-0.9,1.4-1.7c0.1-0.1-0.9-1.9-0.9-2
        c-0.1-0.3-0.1-0.7,0.1-1c0-0.1,1.1-2.1,1.1-2.2c0.3-1-0.3-2-1.2-1.9c-0.1-0.2-2.3,0.1-2.4,0c-0.4,0-0.8-0.1-1.1-0.4
        c-0.1-0.1-1.8-1.5-2-1.6c-0.8-0.6-2-0.2-2.2,0.7c-0.1,0-0.5,2.1-0.6,2.2c-0.1,0.4-0.4,0.6-0.7,0.9c-0.1,0.1-2.1,1.2-2.2,1.3
        C452.8,659.4,452.8,660.6,453.5,661.1z" />
        <path class="st7" d="M458.8,661.1c0,0.2,3.1,1.1,3.2,1.2c0.5,0.2,0.9,0.6,1.1,1.1c0.1,0.1,1.1,3.1,1.2,3.2c0.5,1.3,2.3,1.5,3.3,0.4
        c0.1,0,2.1-2.6,2.2-2.7c0.4-0.4,0.9-0.6,1.5-0.8c0.1,0,3.4-0.2,3.5-0.3c1.4-0.1,2.2-1.7,1.5-2.7c0-0.1-1.8-2.5-1.8-2.6
        c-0.3-0.4-0.3-1-0.2-1.5c0-0.1,1.1-3.2,1.1-3.3c0.2-1.4-0.8-2.6-2.1-2.3c-0.1-0.1-3.3,0.9-3.4,0.8c-0.6,0.1-1.2,0-1.6-0.3
        c-0.1-0.1-2.8-1.8-3-1.8c-1.2-0.7-2.8,0.2-2.9,1.4c-0.1,0-0.2,3.2-0.3,3.2c0,0.5-0.4,1-0.8,1.4c-0.1,0.1-2.8,2.1-2.9,2.3
        C457.4,659,457.6,660.7,458.8,661.1z" />
        <path class="st8" d="M464.3,660.3c0,0.1,4.3,0.7,4.4,0.9c0.7,0.1,1.2,0.6,1.6,1.2c0.1,0.1,1.9,3.8,2,3.9c0.8,1.5,3.2,1.5,4.2,0
        c0.1,0,2.3-3.8,2.4-3.8c0.4-0.6,1.1-1,1.7-1.2c0.1,0,4.4-0.8,4.5-0.9c1.8-0.4,2.6-2.5,1.5-3.7c0-0.1-2.8-2.9-2.8-3
        c-0.5-0.5-0.6-1.2-0.5-1.9c0-0.1,1-4.3,1-4.4c0.1-1.9-1.4-3.2-3.1-2.5c-0.1-0.1-4.1,1.8-4.2,1.8c-0.7,0.3-1.5,0.3-2.1,0
        c-0.1-0.1-3.9-1.9-4.1-1.9c-1.6-0.7-3.6,0.6-3.5,2.3c-0.1,0,0.3,4.2,0.3,4.2c0,0.7-0.3,1.3-0.8,1.9c-0.1,0.1-3.3,3.2-3.4,3.3
        C462,657.9,462.6,660,464.3,660.3z" />
        <path class="st9" d="M470,659.6c0,0.1,5.4,0.2,5.4,0.3c0.9,0,1.6,0.6,2.1,1.2c0.1,0.1,2.8,4.5,2.9,4.5c1.2,1.8,4,1.4,5-0.6
        c0.1,0,2.3-5,2.3-5.1c0.4-0.8,1.2-1.3,2-1.7c0.1,0,5.3-1.6,5.4-1.6c2.2-0.7,2.9-3.4,1.3-4.7c0-0.1-3.9-3.2-3.9-3.3
        c-0.6-0.5-0.9-1.4-0.8-2.2c0-0.1,0.6-5.4,0.6-5.5c-0.2-2.3-2.1-3.6-4.1-2.5c-0.1-0.1-4.8,2.9-4.9,2.9c-0.8,0.5-1.7,0.6-2.6,0.3
        c-0.1,0-5-1.8-5.1-1.8c-2-0.7-4.3,1.2-3.9,3.3c-0.1,0,1,5.1,1,5.2c0.2,0.8-0.2,1.7-0.7,2.5c0,0.1-3.7,4.3-3.7,4.4
        C466.9,657,467.8,659.5,470,659.6z" />
        <path class="st10" d="M475.7,658.5c0,0.1,6.4-0.5,6.5-0.4c1-0.1,1.9,0.5,2.7,1.2c0.1,0.1,3.8,4.9,3.9,5c1.6,2,4.9,1.2,5.8-1.4
        c0.1,0,2-6.3,2.1-6.3c0.3-1,1.2-1.7,2.1-2.3c0,0,6.1-2.5,6.1-2.6c2.5-1,3-4.4,1-5.7c0,0-5.1-3.3-5.1-3.3c-0.8-0.5-1.2-1.5-1.3-2.5
        c0-0.1,0.1-6.5,0.1-6.5c0-2.7-2.9-4-5.1-2.3c-0.1-0.1-5.2,4.1-5.3,4.1c-0.9,0.7-2,0.9-3,0.7c-0.1,0-6.1-1.5-6.2-1.5
        c-2.5-0.6-4.9,2-4.2,4.4c-0.1,0,1.9,5.9,1.8,6c0.3,1,0,2-0.5,3c0,0.1-3.9,5.6-3.9,5.6C471.7,655.8,473.1,658.7,475.7,658.5z" />
        <path class="st11" d="M481.4,657c0,0.1,7.3-1.4,7.4-1.3c1.2-0.2,2.3,0.3,3.2,1c0.1,0,4.9,5.3,5,5.3c2,2.1,5.8,0.8,6.4-2.3
        c0,0,1.6-7.5,1.6-7.5c0.3-1.2,1.2-2.1,2.2-2.9c0,0,6.8-3.6,6.8-3.6c2.7-1.5,3-5.4,0.4-6.7c0,0-6.3-3.2-6.3-3.2
        c-1-0.5-1.6-1.6-1.8-2.8c0,0-0.6-7.5-0.6-7.5c-0.3-3.1-3.9-4.2-6.1-2c-0.1-0.1-5.5,5.4-5.6,5.4c-0.9,0.9-2.1,1.3-3.3,1.1
        c-0.1,0-7.2-1-7.3-1c-2.9-0.4-5.4,2.9-4.2,5.5c0,0,2.9,6.6,2.9,6.6c0.5,1.1,0.2,2.3-0.2,3.5c0,0.1-3.8,6.9-3.8,6.9
        C476.4,654.4,478.4,657.6,481.4,657z" />
        <path class="st12" d="M487.4,655.4c0,0.1,8.1-2.5,8.2-2.5c1.3-0.4,2.6,0,3.7,0.7c0,0,6.1,5.4,6.2,5.4c2.5,2.2,6.6,0.2,6.9-3.3
        c0,0,0.8-8.7,0.9-8.7c0.1-1.4,1.1-2.5,2.1-3.5c0,0,7.2-4.9,7.3-4.9c2.9-2,2.7-6.5-0.3-7.6c0,0-7.6-2.8-7.6-2.8
        c-1.2-0.5-2-1.6-2.4-2.9c0,0-1.6-8.4-1.6-8.4c-0.7-3.4-4.8-4.3-7.1-1.5c-0.1,0-5.6,6.9-5.6,6.9c-0.9,1.1-2.2,1.7-3.6,1.7
        c-0.1,0-8.3-0.3-8.3-0.3c-3.4-0.1-5.7,3.9-4.1,6.8c0,0,4.1,7.1,4.1,7.1c0.7,1.2,0.6,2.6,0.2,4c0,0-3.5,8.2-3.5,8.3
        C481.4,653.1,484.1,656.4,487.4,655.4z" />
        <path class="st13" d="M494.4,653.8c0,0,8.7-3.9,8.7-3.9c1.4-0.6,2.9-0.3,4.2,0.3c0,0,7.5,5.2,7.6,5.1c3.1,2.1,7.3-0.6,7.2-4.6
        c0,0-0.2-9.8-0.2-9.8c0-1.6,0.8-3,1.9-4.2c0,0,7.4-6.4,7.4-6.4c3-2.6,2.2-7.6-1.4-8.4c0,0-8.8-2.1-8.8-2.1c-1.4-0.3-2.5-1.4-3-2.9
        c0,0-2.9-9.1-2.9-9.1c-1.2-3.7-5.9-4.1-8.1-0.7c0,0-5.3,8.5-5.3,8.5c-0.9,1.4-2.3,2.2-3.7,2.4c0,0-9.3,0.8-9.3,0.8
        c-3.7,0.3-5.9,5.1-3.6,8.1c0,0,5.6,7.4,5.6,7.4c0.9,1.2,1,2.8,0.7,4.4c0,0-2.8,9.6-2.8,9.6C487.4,652.1,490.8,655.3,494.4,653.8z" />
        <path class="st14" d="M501.9,651.3c0,0,8.9-5.7,9-5.7c1.4-0.9,3.1-0.8,4.6-0.3c0,0,9,4.5,9,4.5c3.7,1.8,7.9-1.8,7.2-6.2
        c0,0-1.8-10.7-1.8-10.7c-0.3-1.7,0.5-3.4,1.4-4.9c0,0,7.2-8.2,7.2-8.2c2.9-3.3,1.3-8.6-2.8-9c0,0-10-0.9-10-1
        c-1.6-0.2-2.9-1.2-3.7-2.7c0,0-4.6-9.6-4.6-9.6c-1.9-3.9-7.1-3.6-8.9,0.5c0,0-4.4,10.1-4.5,10.1c-0.7,1.6-2.1,2.8-3.7,3.2
        c0,0-10,2.2-10,2.3c-4.1,0.9-5.7,6.4-2.7,9.4c0,0,7.3,7.2,7.3,7.2c1.2,1.2,1.5,2.9,1.5,4.7c0,0-1.6,11-1.6,11
        C494,650.5,498.2,653.6,501.9,651.3z" />
        <path class="st15" d="M539.6,597.6l-11,0.8c-1.8,0.1-3.5-0.7-4.5-2.3l-6.6-9.6c-2.7-3.9-8.3-2.6-9.5,2.2l-3,11.8
        c-0.5,1.9-1.8,3.4-3.5,4.1l-10.5,4.2c-4.2,1.7-5,8-1.3,10.6l9.2,6.5c1.5,1,2.4,2.8,2.4,4.8l0.2,12.2c0.1,4.9,5.2,7.5,8.7,4.4
        l8.7-7.8c1.4-1.2,3.2-1.7,4.9-1.1l10.6,3.3c4.3,1.3,8.2-3.3,6.7-7.9l-3.8-11.3c-0.6-1.8-0.4-3.9,0.6-5.5l6.4-10.1
        C546.8,602.7,544.1,597.2,539.6,597.6z" />
    </g>
</svg>